<svg xmlns="http://www.w3.org/2000/svg" viewBox="0 0 12 20" id="Phone"><g fill="none" fill-rule="evenodd"><g fill="#ffffff" transform="translate(-384 -7159)" class="color000000 svgShape"><g transform="translate(56 160)" fill="#ffffff" class="color000000 svgShape"><path d="M338 7002a1 1 0 0 0-1-1h-6a1 1 0 0 0-1 1v14a1 1 0 0 0 1 1h6a1 1 0 0 0 1-1v-14zm2-1v16a2 2 0 0 1-2 2h-8a2 2 0 0 1-2-2v-16a2 2 0 0 1 2-2h8a2 2 0 0 1 2 2zm-4.979 13a1 1 0 1 1-2 0 1 1 0 0 1 2 0z" fill="#ffffff" class="color000000 svgShape"></path></g></g></g></svg>